# xmcd
#
# Track frame offsets: 
#        150
#        17077
#        57089
#        108086
#        172145
#        215557
#        228437
#        257972
#
# Disc length: 3948 seconds
#
# Revision: 0
# Processed by: cddbd v1.5.2PL0 Copyright (c) Steve Scherf et al.
# Submitted via: ExactAudioCopy v0.99pb5
#
DISCID=6b0f6a08
DTITLE=Yes  - Yessongs  Disc 1 (2009 SHM-CD WPCR-13517).
DYEAR=1900
DGENRE=
TTITLE0=Opening (Excerpts From 'Firebird Suite')
TTITLE1=Siberian Khatru
TTITLE2=Heart Of The Sunrise
TTITLE3=Perpetual Change
TTITLE4=And You And I
TTITLE5=Mood For A Day
TTITLE6=Excerpts From 'The Six Wives Of Henry VIII'
TTITLE7=Roundabout
EXTD=
EXTT0=
EXTT1=
EXTT2=
EXTT3=
EXTT4=
EXTT5=
EXTT6=
EXTT7=
PLAYORDER=
